# xmcd
#
# Track frame offsets: 
#        150
#        17792
#        32020
#        41987
#        60297
#        76887
#        95762
#        113845
#        132745
#        148795
#        165362
#        185237
#        198337
#        208377
#
# Disc length: 3028 seconds
#
# Revision: 2
# Processed by: cddbd v1.4PL0 Copyright (c) Steve Scherf et al.
# Submitted via: ExactAudioCopy v0.90b3
#
DISCID=cf0bd20e
DTITLE=The Bellamy Brothers - Sons Of Beaches
DYEAR=1900
DGENRE=Country
TTITLE0=Shine Them Buckles
TTITLE1=Big Hair
TTITLE2=Pit Bulls And Chainsaws
TTITLE3=Blue Rodeo
TTITLE4=Twang Town
TTITLE5=She's Awesome
TTITLE6=Old Hippie (The Sequel)
TTITLE7=Native American
TTITLE8=Feel Free
TTITLE9=Too Much Fun
TTITLE10=We Dared The Lightning
TTITLE11=Elvis, Marilyn And James Dean
TTITLE12=Gotta Get A Little Crazy
TTITLE13=Jesus Is Coming
EXTD=
EXTT0=
EXTT1=
EXTT2=
EXTT3=
EXTT4=
EXTT5=
EXTT6=
EXTT7=
EXTT8=
EXTT9=
EXTT10=
EXTT11=
EXTT12=
EXTT13=
PLAYORDER=
